# xmcd
#
# Track frame offsets:
# 150
# 16862
# 28962
# 40882
# 55569
# 68919
# 85045
# 102533
# 115818
# 136162
# 147790
# 162778
# 179551
#
# Disc length: 2562 seconds
#
# Revision: 0
# Processed by: cddbd v1.4PL0 Copyright (c) Steve Scherf et al.
# Submitted via: Audion 3.0.2 (http://www.panic.com/audion/)
#
DISCID=a90a000d
DTITLE=Yonder Mountain String Band - Old Hands
DYEAR=1900
DGENRE=
TTITLE0=Pride of Alabama
TTITLE1=Hill Country Girl
TTITLE2=Big Lights
TTITLE3=Deep Pockets
TTITLE4=Sleepy Cowboy
TTITLE5=Train Bound for Glory Land
TTITLE6=Wind Through the Willows
TTITLE7=Not Far Away
TTITLE8=And Going Away
TTITLE9=Alone and Blue
TTITLE10=Everytime
TTITLE11=Winds O' Wyoming
TTITLE12=Behold, the Rock of Ages
EXTD=
EXTT0=
EXTT1=
EXTT2=
EXTT3=
EXTT4=
EXTT5=
EXTT6=
EXTT7=
EXTT8=
EXTT9=
EXTT10=
EXTT11=
EXTT12=
PLAYORDER=
